<?xml version="1.0" encoding="UTF-8"?>
<svg id="Layer_1" data-name="Layer 1" xmlns="http://www.w3.org/2000/svg" viewBox="0 0 1024 1024">
  <rect width="1024" height="1024" style="fill: #012626;"/>
  <path d="m828.56,75.92h74.28c3.85,0,6.52,3.85,5.15,7.45-10.53,27.68-40.54,93.68-112.34,143.96-3.84,2.69-9.08-.34-8.66-5.01,7.57-85.27,28.59-128.7,36.75-143.56.97-1.76,2.81-2.84,4.82-2.84Z" style="fill: #a9d962;"/>
  <path d="m763.58,83.67c-11.1,24.95-19.5,52.56-25.75,81.47-.93,4.32-6.3,5.86-9.35,2.66-11.8-12.39-34.22-39.98-52.18-84.34-1.46-3.61,1.22-7.54,5.12-7.54h77.14c3.99,0,6.64,4.11,5.02,7.76Z" style="fill: #78a658;"/>
  <path d="m395.91,75.92h34.62c3.09,0,5.57,2.56,5.5,5.65-3.46,139.19,6.81,265.27,13.53,337.56.35,3.78-3.14,6.77-6.82,5.84-17.55-4.41-60.87-15.42-92.55-24.15-1.73-.48-3.11-1.76-3.71-3.45-10.8-30.23-38.54-110.43-48.15-142.52-.76-2.52.4-5.21,2.73-6.44,51.64-27.15,79.24-97.43,89.4-167.75.39-2.72,2.7-4.74,5.45-4.74Z" style="fill: #4d7343;"/>
  <path d="m367.72,82.5c-6.59,33.06-25.74,106.27-72.11,135.3-3.16,1.98-7.35.27-8.26-3.35-13.77-54.7-21.11-102.87-24.25-132.46-.35-3.25,2.21-6.07,5.48-6.07h93.74c3.48,0,6.08,3.18,5.4,6.59Z" style="fill: #78a658;"/>
  <path d="m81.42,75.92h128.41c2.95,0,5.36,2.33,5.49,5.28,1.52,35.51,5.43,70.78,11.09,105.81.61,3.77-2.69,7-6.44,6.31-59.96-10.99-106.91-24.78-140.71-38.98-2.03-.85-3.35-2.86-3.35-5.07v-67.85c0-3.04,2.47-5.51,5.51-5.51Z" style="fill: #a9d962;"/>
  <path d="m83.6,187.4c53.9,23.34,116.91,38.57,147.85,45.3,2.12.46,3.76,2.13,4.2,4.26,9.13,44.1,20.61,87.8,33.19,131.05,1.23,4.22-2.72,8.11-6.91,6.8-34.86-10.89-124.88-39.93-183.23-72.72-1.73-.97-2.79-2.81-2.79-4.79v-104.86c0-3.96,4.05-6.62,7.68-5.05Z" style="fill: #78a658;"/>
  <path d="m75.92,942.58v-151.38c0-3.96,4.05-6.63,7.68-5.06,39.83,17.25,181.82,72.97,424.63,76.04,2.61.03,4.85,1.89,5.34,4.46,4.78,24.98,9.74,49.93,14.88,74.83.7,3.41-1.9,6.61-5.38,6.61H81.42c-3.04,0-5.51-2.47-5.51-5.51Z" style="fill: #bad3d9;"/>
  <path d="m945.94,622c-23.49,18.12-48.38,34.84-73.97,50.14-3.49,2.09-7.96-.15-8.33-4.19-2.67-28.92-4.97-125.68,74.87-212.22,3.41-3.7,9.58-1.32,9.58,3.71v158.19c0,1.71-.79,3.33-2.14,4.37Z" style="fill: #a9d962;"/>
  <path d="m946.59,245.97c-34.98,37.22-83.12,72.59-152.88,105.11-3.52,1.64-7.62-.77-7.84-4.65-1.38-24.12-2.03-49.04-1.53-74.02.04-1.89,1.05-3.62,2.66-4.6,17.96-10.93,109.29-70.34,144.34-187.91.7-2.34,2.83-3.96,5.28-3.96h5.96c3.04,0,5.51,2.47,5.51,5.51v160.77c0,1.4-.53,2.75-1.49,3.78Z" style="fill: #78a658;"/>
  <path d="m221.36,740.52c-21.61-75.36-71.77-151.16-136.09-214.05-3.48-3.4-9.35-.91-9.35,3.95v166.4c0,2.11,1.21,4.05,3.11,4.97,54.47,26.2,113.59,40.67,135.83,45.6,4.07.9,7.64-2.87,6.49-6.88Z" style="fill: #78a658;"/>
  <g>
    <path d="m833.43,626.23l-24.63-22.75c-3.53-3.26-9.24-.76-9.24,4.04v94.84c0,4.1,4.32,6.75,7.99,4.92,8.8-4.41,17.54-8.93,26.21-13.57,2.02-1.08,3.13-3.29,2.85-5.56-2.36-19.02-2.8-38.31-1.43-57.48.12-1.67-.52-3.3-1.74-4.44Z" style="fill: #4d7343;"/>
    <path d="m713.29,470.05l120.68,112.58c3.09,2.88,8.12,1.35,9.11-2.76,4.15-17.19,9.76-34,16.74-50.14,19.13-44.22,49.79-83.11,86.33-114.27,1.23-1.05,1.94-2.57,1.94-4.18v-62.08c0-4.61-5.32-7.16-8.93-4.3-64.92,51.43-143.8,89.01-223.88,115.92-3.95,1.33-5.03,6.4-1.98,9.24Z" style="fill: #4d7343;"/>
  </g>
  <path d="m604.81,368.84l35.72,33.32c1.38,1.29,3.33,1.79,5.16,1.31,24.71-6.49,49.25-13.85,73.41-22.26,2.29-.8,3.78-2.99,3.69-5.41-1.94-51.57-.72-110.15,7.25-166.54.25-1.78-.37-3.55-1.68-4.78-10.71-10-56.97-58.24-72.63-124.38-.58-2.47-2.81-4.19-5.34-4.19h-58.25c-3.07,0-5.55,2.51-5.51,5.58.67,42.26,8.51,207.41,16.47,283.9.14,1.32.75,2.54,1.72,3.44Z" style="fill: #4d7343;"/>
  <path d="m322.41,603.48l-26.03,24.04c-2.22,2.05-5.69,1.93-7.76-.29l-14.49-15.51c-2.08-2.22-1.96-5.71.27-7.79l115.09-107.36c3.11-2.91,1.9-8.09-2.18-9.3-90.47-26.87-214.04-67.11-303.36-113.02-3.67-1.88-8.02.77-8.02,4.89v106.29c0,1.61.72,3.14,1.94,4.19,121.65,103.52,163.69,210.12,176.8,262.39.53,2.11,2.24,3.7,4.39,4.08,22.05,3.87,44.22,7.07,66.47,9.65,3.27.38,6.14-2.19,6.14-5.48v-152.74c0-4.8-5.72-7.3-9.24-4.04Z" style="fill: #4d7343;"/>
  <path d="m561.84,379.92l-196.24,183.48c-1.11,1.04-1.75,2.5-1.75,4.02v186.08c0,3.04,2.47,5.51,5.51,5.51h129.55c3.04,0,5.51-2.47,5.51-5.51v-176.24c0-3.04,2.47-5.51,5.51-5.51h109.11c3.04,0,5.51,2.47,5.51,5.51v176.24c0,3.04,2.47,5.51,5.51,5.51h56.58c.65,0,1.29-.11,1.9-.34,25.55-9.3,50.76-19.57,75.57-30.73,1.98-.89,3.25-2.86,3.25-5.03v-155.49c0-1.52-.63-2.98-1.75-4.02l-196.24-183.48c-2.12-1.98-5.4-1.98-7.52,0Z" style="fill: #fff;"/>
  <path d="m685.52,858.4c4.15,18.31,16.27,70.21,19.83,85.43.58,2.49,2.8,4.25,5.36,4.25h231.87c3.04,0,5.51-2.47,5.51-5.51v-219.3c0-4.48-5.07-7.08-8.71-4.47-106.79,76.68-226.14,123.98-250.46,133.24-2.56.98-4.01,3.67-3.4,6.35Z" style="fill: #bad3d9;"/>
</svg>